<?xml version="1.0" encoding="us-ascii" standalone="no"?><svg xmlns="http://www.w3.org/2000/svg" xmlns:xlink="http://www.w3.org/1999/xlink" contentStyleType="text/css" height="1280.2083px" preserveAspectRatio="none" style="width:392px;height:1280px;" version="1.1" viewBox="0 0 392 1280" width="392.7083px" zoomAndPan="magnify"><defs><linearGradient id="gkm2pn59yyybw0" x1="50%" x2="50%" y1="0%" y2="100%"><stop offset="0%" stop-color="#151515"/><stop offset="100%" stop-color="#000000"/></linearGradient><linearGradient id="gkm2pn59yyybw1" x1="50%" x2="50%" y1="0%" y2="100%"><stop offset="0%" stop-color="#D3F198"/><stop offset="100%" stop-color="#B5E853"/></linearGradient><linearGradient id="gkm2pn59yyybw2" x1="50%" x2="50%" y1="0%" y2="100%"><stop offset="0%" stop-color="#88B2C4"/><stop offset="100%" stop-color="#6A9FB5"/></linearGradient></defs><g><rect fill="url(#gkm2pn59yyybw0)" height="47.168" id="_title" rx="4.1667" ry="4.1667" style="stroke:#B5E853;stroke-width:1.0416666666666667;" width="216.6667" x="86.7188" y="20.8333"/><text fill="#B5E853" font-family="Verdana" font-size="20.8333" font-weight="bold" lengthAdjust="spacing" textLength="193.75" x="98.1771" y="51.6296">sCart Flowchart</text><ellipse cx="177.6042" cy="89.8763" fill="#AA759F" rx="10.4167" ry="10.4167" style="stroke:#6D8B32;stroke-width:1.0416666666666667;"/><rect fill="url(#gkm2pn59yyybw1)" height="37.4674" rx="20.8333" ry="20.8333" style="stroke:#D3F198;stroke-width:1.0416666666666667;" width="168.75" x="93.2292" y="121.1263"/><text fill="#151515" font-family="Verdana" font-size="12.5" lengthAdjust="spacing" textLength="145.8333" x="104.6875" y="144.1874">User opens application</text><rect fill="url(#gkm2pn59yyybw1)" height="37.4674" rx="20.8333" ry="20.8333" style="stroke:#D3F198;stroke-width:1.0416666666666667;" width="258.3333" x="48.4375" y="235.6608"/><text fill="#151515" font-family="Verdana" font-size="12.5" lengthAdjust="spacing" textLength="235.4167" x="59.8958" y="258.7219">User enters Username and Password</text><rect fill="url(#gkm2pn59yyybw1)" height="37.4674" rx="20.8333" ry="20.8333" style="stroke:#D3F198;stroke-width:1.0416666666666667;" width="255.2083" x="50" y="293.9616"/><text fill="#151515" font-family="Verdana" font-size="12.5" lengthAdjust="spacing" textLength="232.2917" x="61.4583" y="317.0227">System validates credentials with API</text><polygon fill="url(#gkm2pn59yyybw2)" points="103.6458,352.2624,251.5625,352.2624,264.0625,364.7624,251.5625,377.2624,103.6458,377.2624,91.1458,364.7624,103.6458,352.2624" style="stroke:#88B2C4;stroke-width:1.0416666666666667;"/><text fill="#FEFEFE" font-family="Verdana" font-size="12.5" lengthAdjust="spacing" textLength="137.5" x="108.8542" y="369.0898">Are Credentials Valid?</text><text fill="#FFFFFF" font-family="Verdana" font-size="12.5" lengthAdjust="spacing" textLength="22.9167" x="63.0208" y="356.606">Yes</text><text fill="#FFFFFF" font-family="Verdana" font-size="12.5" lengthAdjust="spacing" textLength="16.6667" x="269.2708" y="356.606">No</text><rect fill="url(#gkm2pn59yyybw1)" height="37.4674" rx="20.8333" ry="20.8333" style="stroke:#D3F198;stroke-width:1.0416666666666667;" width="128.125" x="16.6667" y="387.679"/><text fill="#151515" font-family="Verdana" font-size="12.5" lengthAdjust="spacing" textLength="105.2083" x="28.125" y="410.7402">Login Successful</text><rect fill="url(#gkm2pn59yyybw1)" height="37.4674" rx="20.8333" ry="20.8333" style="stroke:#D3F198;stroke-width:1.0416666666666667;" width="154.1667" x="197.3958" y="387.679"/><text fill="#151515" font-family="Verdana" font-size="12.5" lengthAdjust="spacing" textLength="131.25" x="208.8542" y="410.7402">Show Error Message</text><ellipse cx="274.4792" cy="457.4382" fill="none" rx="11.4583" ry="11.4583" style="stroke:#6D8B32;stroke-width:1.0416666666666667;"/><ellipse cx="274.4792" cy="457.4382" fill="#6D8B32" rx="6.25" ry="6.25" style="stroke:#364519;stroke-width:1.0416666666666667;"/><polygon fill="url(#gkm2pn59yyybw2)" points="113.5417,179.4271,241.6667,179.4271,254.1667,191.9271,241.6667,204.4271,113.5417,204.4271,101.0417,191.9271,113.5417,179.4271" style="stroke:#88B2C4;stroke-width:1.0416666666666667;"/><text fill="#FFFFFF" font-family="Verdana" font-size="12.5" lengthAdjust="spacing" textLength="16.6667" x="186.9792" y="221.2382">No</text><text fill="#FEFEFE" font-family="Verdana" font-size="12.5" lengthAdjust="spacing" textLength="117.7083" x="118.75" y="196.2545">Is User Logged In?</text><polygon fill="url(#gkm2pn59yyybw2)" points="177.6042,489.7298,190.1042,502.2298,177.6042,514.7298,165.1042,502.2298,177.6042,489.7298" style="stroke:#88B2C4;stroke-width:1.0416666666666667;"/><rect fill="url(#gkm2pn59yyybw1)" height="37.4674" rx="20.8333" ry="20.8333" style="stroke:#D3F198;stroke-width:1.0416666666666667;" width="197.9167" x="78.6458" y="535.5632"/><text fill="#151515" font-family="Verdana" font-size="12.5" lengthAdjust="spacing" textLength="175" x="90.1042" y="558.6243">Display Product Listing Page</text><rect fill="url(#gkm2pn59yyybw1)" height="37.4674" rx="20.8333" ry="20.8333" style="stroke:#D3F198;stroke-width:1.0416666666666667;" width="194.7917" x="80.2083" y="593.8639"/><text fill="#151515" font-family="Verdana" font-size="12.5" lengthAdjust="spacing" textLength="171.875" x="91.6667" y="616.925">Fetch Product data from API</text><rect fill="url(#gkm2pn59yyybw1)" height="37.4674" rx="20.8333" ry="20.8333" style="stroke:#D3F198;stroke-width:1.0416666666666667;" width="190.625" x="82.2917" y="652.1647"/><text fill="#151515" font-family="Verdana" font-size="12.5" lengthAdjust="spacing" textLength="167.7083" x="93.75" y="675.2258">User searches for product</text><rect fill="url(#gkm2pn59yyybw1)" height="37.4674" rx="20.8333" ry="20.8333" style="stroke:#D3F198;stroke-width:1.0416666666666667;" width="222.9167" x="66.1458" y="710.4655"/><text fill="#151515" font-family="Verdana" font-size="12.5" lengthAdjust="spacing" textLength="200" x="77.6042" y="733.5266">Filter Products based on search</text><rect fill="url(#gkm2pn59yyybw1)" height="37.4674" rx="20.8333" ry="20.8333" style="stroke:#D3F198;stroke-width:1.0416666666666667;" width="181.25" x="86.9792" y="768.7663"/><text fill="#151515" font-family="Verdana" font-size="12.5" lengthAdjust="spacing" textLength="158.3333" x="98.4375" y="791.8274">Show filtered product list</text><rect fill="url(#gkm2pn59yyybw1)" height="37.4674" rx="20.8333" ry="20.8333" style="stroke:#D3F198;stroke-width:1.0416666666666667;" width="205.2083" x="75" y="883.3008"/><text fill="#151515" font-family="Verdana" font-size="12.5" lengthAdjust="spacing" textLength="182.2917" x="86.4583" y="906.3619">Add selected product to cart</text><rect fill="url(#gkm2pn59yyybw1)" height="37.4674" rx="20.8333" ry="20.8333" style="stroke:#D3F198;stroke-width:1.0416666666666667;" width="135.4167" x="109.8958" y="954.6224"/><text fill="#151515" font-family="Verdana" font-size="12.5" lengthAdjust="spacing" textLength="112.5" x="121.3542" y="977.6835">Update cart count</text><polygon fill="url(#gkm2pn59yyybw2)" points="100,827.0671,255.2083,827.0671,267.7083,839.5671,255.2083,852.0671,100,852.0671,87.5,839.5671,100,827.0671" style="stroke:#88B2C4;stroke-width:1.0416666666666667;"/><text fill="#FFFFFF" font-family="Verdana" font-size="12.5" lengthAdjust="spacing" textLength="22.9167" x="186.9792" y="868.8782">Yes</text><text fill="#FEFEFE" font-family="Verdana" font-size="12.5" lengthAdjust="spacing" textLength="144.7917" x="105.2083" y="843.8944">Is User Adding to Cart?</text><polygon fill="url(#gkm2pn59yyybw2)" points="177.6042,1012.9232,190.1042,1025.4232,177.6042,1037.9232,165.1042,1025.4232,177.6042,1012.9232" style="stroke:#88B2C4;stroke-width:1.0416666666666667;"/><polygon fill="url(#gkm2pn59yyybw2)" points="112.5,1058.7565,242.7083,1058.7565,255.2083,1071.2565,242.7083,1083.7565,112.5,1083.7565,100,1071.2565,112.5,1058.7565" style="stroke:#88B2C4;stroke-width:1.0416666666666667;"/><text fill="#FEFEFE" font-family="Verdana" font-size="12.5" lengthAdjust="spacing" textLength="119.7917" x="117.7083" y="1075.5839">Is There Any Error?</text><text fill="#FFFFFF" font-family="Verdana" font-size="12.5" lengthAdjust="spacing" textLength="22.9167" x="71.875" y="1063.1002">Yes</text><text fill="#FFFFFF" font-family="Verdana" font-size="12.5" lengthAdjust="spacing" textLength="16.6667" x="260.4167" y="1063.1002">No</text><rect fill="url(#gkm2pn59yyybw1)" height="37.4674" rx="20.8333" ry="20.8333" style="stroke:#D3F198;stroke-width:1.0416666666666667;" width="103.125" x="38.0208" y="1094.1732"/><text fill="#151515" font-family="Verdana" font-size="12.5" lengthAdjust="spacing" textLength="80.2083" x="49.4792" y="1117.2343">Handle error</text><rect fill="url(#gkm2pn59yyybw1)" height="37.4674" rx="20.8333" ry="20.8333" style="stroke:#D3F198;stroke-width:1.0416666666666667;" width="156.25" x="11.4583" y="1152.474"/><text fill="#151515" font-family="Verdana" font-size="12.5" lengthAdjust="spacing" textLength="133.3333" x="22.9167" y="1175.5351">Show error message</text><rect fill="url(#gkm2pn59yyybw1)" height="37.4674" rx="20.8333" ry="20.8333" style="stroke:#D3F198;stroke-width:1.0416666666666667;" width="154.1667" x="188.5417" y="1094.1732"/><text fill="#151515" font-family="Verdana" font-size="12.5" lengthAdjust="spacing" textLength="131.25" x="200" y="1117.2343">Continue normal flow</text><polygon fill="url(#gkm2pn59yyybw2)" points="177.6042,1200.3581,190.1042,1212.8581,177.6042,1225.3581,165.1042,1212.8581,177.6042,1200.3581" style="stroke:#88B2C4;stroke-width:1.0416666666666667;"/><ellipse cx="177.6042" cy="1257.6497" fill="none" rx="11.4583" ry="11.4583" style="stroke:#6D8B32;stroke-width:1.0416666666666667;"/><ellipse cx="177.6042" cy="1257.6497" fill="#6D8B32" rx="6.25" ry="6.25" style="stroke:#364519;stroke-width:1.0416666666666667;"/><line style="stroke:#B5E853;stroke-width:3.125;" x1="177.6042" x2="177.6042" y1="100.293" y2="121.1263"/><polygon fill="#B5E853" points="173.4375,110.7096,177.6042,121.1263,181.7708,110.7096,177.6042,114.8763" style="stroke:#B5E853;stroke-width:1.0416666666666667;"/><line style="stroke:#B5E853;stroke-width:3.125;" x1="177.6042" x2="177.6042" y1="273.1283" y2="293.9616"/><polygon fill="#B5E853" points="173.4375,283.5449,177.6042,293.9616,181.7708,283.5449,177.6042,287.7116" style="stroke:#B5E853;stroke-width:1.0416666666666667;"/><line style="stroke:#B5E853;stroke-width:3.125;" x1="274.4792" x2="274.4792" y1="425.1465" y2="445.9798"/><polygon fill="#B5E853" points="270.3125,435.5632,274.4792,445.9798,278.6458,435.5632,274.4792,439.7298" style="stroke:#B5E853;stroke-width:1.0416666666666667;"/><line style="stroke:#B5E853;stroke-width:3.125;" x1="91.1458" x2="80.7292" y1="364.7624" y2="364.7624"/><line style="stroke:#B5E853;stroke-width:3.125;" x1="80.7292" x2="80.7292" y1="364.7624" y2="387.679"/><polygon fill="#B5E853" points="76.5625,377.2624,80.7292,387.679,84.8958,377.2624,80.7292,381.429" style="stroke:#B5E853;stroke-width:1.0416666666666667;"/><line style="stroke:#B5E853;stroke-width:3.125;" x1="264.0625" x2="274.4792" y1="364.7624" y2="364.7624"/><line style="stroke:#B5E853;stroke-width:3.125;" x1="274.4792" x2="274.4792" y1="364.7624" y2="387.679"/><polygon fill="#B5E853" points="270.3125,377.2624,274.4792,387.679,278.6458,377.2624,274.4792,381.429" style="stroke:#B5E853;stroke-width:1.0416666666666667;"/><line style="stroke:#B5E853;stroke-width:3.125;" x1="80.7292" x2="80.7292" y1="425.1465" y2="474.1048"/><line style="stroke:#B5E853;stroke-width:3.125;" x1="80.7292" x2="177.6042" y1="474.1048" y2="474.1048"/><line style="stroke:#B5E853;stroke-width:3.125;" x1="177.6042" x2="177.6042" y1="474.1048" y2="489.7298"/><polygon fill="#B5E853" points="173.4375,479.3132,177.6042,489.7298,181.7708,479.3132,177.6042,483.4798" style="stroke:#B5E853;stroke-width:1.0416666666666667;"/><line style="stroke:#B5E853;stroke-width:3.125;" x1="177.6042" x2="177.6042" y1="331.429" y2="352.2624"/><polygon fill="#B5E853" points="173.4375,341.8457,177.6042,352.2624,181.7708,341.8457,177.6042,346.0124" style="stroke:#B5E853;stroke-width:1.0416666666666667;"/><line style="stroke:#B5E853;stroke-width:3.125;" x1="177.6042" x2="177.6042" y1="204.4271" y2="235.6608"/><polygon fill="#B5E853" points="173.4375,225.2441,177.6042,235.6608,181.7708,225.2441,177.6042,229.4108" style="stroke:#B5E853;stroke-width:1.0416666666666667;"/><line style="stroke:#B5E853;stroke-width:3.125;" x1="254.1667" x2="366.1458" y1="191.9271" y2="191.9271"/><polygon fill="#B5E853" points="361.9792,342.3828,366.1458,352.7995,370.3125,342.3828,366.1458,346.5495" style="stroke:#B5E853;stroke-width:3.125;"/><line style="stroke:#B5E853;stroke-width:3.125;" x1="366.1458" x2="366.1458" y1="191.9271" y2="502.2298"/><line style="stroke:#B5E853;stroke-width:3.125;" x1="366.1458" x2="190.1042" y1="502.2298" y2="502.2298"/><polygon fill="#B5E853" points="200.5208,498.0632,190.1042,502.2298,200.5208,506.3965,196.3542,502.2298" style="stroke:#B5E853;stroke-width:1.0416666666666667;"/><line style="stroke:#B5E853;stroke-width:3.125;" x1="177.6042" x2="177.6042" y1="158.5938" y2="179.4271"/><polygon fill="#B5E853" points="173.4375,169.0104,177.6042,179.4271,181.7708,169.0104,177.6042,173.1771" style="stroke:#B5E853;stroke-width:1.0416666666666667;"/><line style="stroke:#B5E853;stroke-width:3.125;" x1="177.6042" x2="177.6042" y1="514.7298" y2="535.5632"/><polygon fill="#B5E853" points="173.4375,525.1465,177.6042,535.5632,181.7708,525.1465,177.6042,529.3132" style="stroke:#B5E853;stroke-width:1.0416666666666667;"/><line style="stroke:#B5E853;stroke-width:3.125;" x1="177.6042" x2="177.6042" y1="573.0306" y2="593.8639"/><polygon fill="#B5E853" points="173.4375,583.4473,177.6042,593.8639,181.7708,583.4473,177.6042,587.6139" style="stroke:#B5E853;stroke-width:1.0416666666666667;"/><line style="stroke:#B5E853;stroke-width:3.125;" x1="177.6042" x2="177.6042" y1="631.3314" y2="652.1647"/><polygon fill="#B5E853" points="173.4375,641.748,177.6042,652.1647,181.7708,641.748,177.6042,645.9147" style="stroke:#B5E853;stroke-width:1.0416666666666667;"/><line style="stroke:#B5E853;stroke-width:3.125;" x1="177.6042" x2="177.6042" y1="689.6322" y2="710.4655"/><polygon fill="#B5E853" points="173.4375,700.0488,177.6042,710.4655,181.7708,700.0488,177.6042,704.2155" style="stroke:#B5E853;stroke-width:1.0416666666666667;"/><line style="stroke:#B5E853;stroke-width:3.125;" x1="177.6042" x2="177.6042" y1="747.9329" y2="768.7663"/><polygon fill="#B5E853" points="173.4375,758.3496,177.6042,768.7663,181.7708,758.3496,177.6042,762.5163" style="stroke:#B5E853;stroke-width:1.0416666666666667;"/><line style="stroke:#B5E853;stroke-width:3.125;" x1="177.6042" x2="177.6042" y1="920.7682" y2="954.6224"/><polygon fill="#B5E853" points="173.4375,944.2057,177.6042,954.6224,181.7708,944.2057,177.6042,948.3724" style="stroke:#B5E853;stroke-width:1.0416666666666667;"/><line style="stroke:#B5E853;stroke-width:3.125;" x1="177.6042" x2="177.6042" y1="852.0671" y2="883.3008"/><polygon fill="#B5E853" points="173.4375,872.8841,177.6042,883.3008,181.7708,872.8841,177.6042,877.0508" style="stroke:#B5E853;stroke-width:1.0416666666666667;"/><line style="stroke:#B5E853;stroke-width:3.125;" x1="267.7083" x2="290.625" y1="839.5671" y2="839.5671"/><polygon fill="#B5E853" points="286.4583,931.1849,290.625,941.6016,294.7917,931.1849,290.625,935.3516" style="stroke:#B5E853;stroke-width:3.125;"/><line style="stroke:#B5E853;stroke-width:3.125;" x1="290.625" x2="290.625" y1="839.5671" y2="1025.4232"/><line style="stroke:#B5E853;stroke-width:3.125;" x1="290.625" x2="190.1042" y1="1025.4232" y2="1025.4232"/><polygon fill="#B5E853" points="200.5208,1021.2565,190.1042,1025.4232,200.5208,1029.5898,196.3542,1025.4232" style="stroke:#B5E853;stroke-width:1.0416666666666667;"/><line style="stroke:#B5E853;stroke-width:3.125;" x1="177.6042" x2="177.6042" y1="992.0898" y2="1012.9232"/><polygon fill="#B5E853" points="173.4375,1002.5065,177.6042,1012.9232,181.7708,1002.5065,177.6042,1006.6732" style="stroke:#B5E853;stroke-width:1.0416666666666667;"/><line style="stroke:#B5E853;stroke-width:3.125;" x1="177.6042" x2="177.6042" y1="806.2337" y2="827.0671"/><polygon fill="#B5E853" points="173.4375,816.6504,177.6042,827.0671,181.7708,816.6504,177.6042,820.8171" style="stroke:#B5E853;stroke-width:1.0416666666666667;"/><line style="stroke:#B5E853;stroke-width:3.125;" x1="89.5833" x2="89.5833" y1="1131.6406" y2="1152.474"/><polygon fill="#B5E853" points="85.4167,1142.0573,89.5833,1152.474,93.75,1142.0573,89.5833,1146.224" style="stroke:#B5E853;stroke-width:1.0416666666666667;"/><line style="stroke:#B5E853;stroke-width:3.125;" x1="100" x2="89.5833" y1="1071.2565" y2="1071.2565"/><line style="stroke:#B5E853;stroke-width:3.125;" x1="89.5833" x2="89.5833" y1="1071.2565" y2="1094.1732"/><polygon fill="#B5E853" points="85.4167,1083.7565,89.5833,1094.1732,93.75,1083.7565,89.5833,1087.9232" style="stroke:#B5E853;stroke-width:1.0416666666666667;"/><line style="stroke:#B5E853;stroke-width:3.125;" x1="255.2083" x2="265.625" y1="1071.2565" y2="1071.2565"/><line style="stroke:#B5E853;stroke-width:3.125;" x1="265.625" x2="265.625" y1="1071.2565" y2="1094.1732"/><polygon fill="#B5E853" points="261.4583,1083.7565,265.625,1094.1732,269.7917,1083.7565,265.625,1087.9232" style="stroke:#B5E853;stroke-width:1.0416666666666667;"/><line style="stroke:#B5E853;stroke-width:3.125;" x1="89.5833" x2="89.5833" y1="1189.9414" y2="1212.8581"/><line style="stroke:#B5E853;stroke-width:3.125;" x1="89.5833" x2="165.1042" y1="1212.8581" y2="1212.8581"/><polygon fill="#B5E853" points="154.6875,1208.6914,165.1042,1212.8581,154.6875,1217.0247,158.8542,1212.8581" style="stroke:#B5E853;stroke-width:1.0416666666666667;"/><line style="stroke:#B5E853;stroke-width:3.125;" x1="265.625" x2="265.625" y1="1131.6406" y2="1212.8581"/><line style="stroke:#B5E853;stroke-width:3.125;" x1="265.625" x2="190.1042" y1="1212.8581" y2="1212.8581"/><polygon fill="#B5E853" points="200.5208,1208.6914,190.1042,1212.8581,200.5208,1217.0247,196.3542,1212.8581" style="stroke:#B5E853;stroke-width:1.0416666666666667;"/><line style="stroke:#B5E853;stroke-width:3.125;" x1="177.6042" x2="177.6042" y1="1037.9232" y2="1058.7565"/><polygon fill="#B5E853" points="173.4375,1048.3398,177.6042,1058.7565,181.7708,1048.3398,177.6042,1052.5065" style="stroke:#B5E853;stroke-width:1.0416666666666667;"/><line style="stroke:#B5E853;stroke-width:3.125;" x1="177.6042" x2="177.6042" y1="1225.3581" y2="1246.1914"/><polygon fill="#B5E853" points="173.4375,1235.7747,177.6042,1246.1914,181.7708,1235.7747,177.6042,1239.9414" style="stroke:#B5E853;stroke-width:1.0416666666666667;"/><!--SRC=[PLB1JiCm3BttAynj-uNkWAh1nAI19eqXSGo9sqIaIHMxLFjxdBIR9hYqJVsUtxDV7jXYZs2L_iPKiMEFG5kL67O-JjhALrKHbrTz9amG1mm4QXYyqufT39kgSYsizWIbVeXTXmRsuN4DqZp0wYskAu2PZO4npSYWH5W50qT5DCLaDXbrkX1Z3p_AEwCO2NH28oodFC7as49pt6TarcmImlQk_f5PDzrFf2miJSMJ2t0QjKQYTlIPZvxmwYthsZZ1SqenmQk0L8URKY2EGqO7uzfgVbRrawF1gmiSKpIZPZWuOXSwcIJJwXsojhUYZA6WJR6VdIzh95H9Mvcl5SLXXcQgyxAWAvVWIv4iCuO5BuXYj2qmgInCyEBWJn2DCTaJHyXv_jrABMLfwb7pNHi1Qm6N9Cv33g2SGSSnoDzb_aNbtOe5QC9btji_XHS9LwuJvkASRRPUZj1VTtmVGxsD4cGO4K9ClVBGoXsygUOaVW40]--></g></svg>